<svg width="40" height="40" viewBox="0 0 40 40" fill="none" xmlns="http://www.w3.org/2000/svg">
<path d="M16.6661 38.3333C16.6661 38.7754 16.4905 39.1993 16.178 39.5118C15.8654 39.8244 15.4415 40 14.9995 40H1.66661C1.2246 40 0.80069 39.8244 0.48814 39.5118C0.175589 39.1993 0 38.7754 0 38.3333V1.66667C0 1.22464 0.175589 0.800716 0.48814 0.488156C0.80069 0.175595 1.2246 0 1.66661 0H14.9995C15.4415 0 15.8654 0.175595 16.178 0.488156C16.4905 0.800716 16.6661 1.22464 16.6661 1.66667C16.6661 2.10869 16.4905 2.53262 16.178 2.84518C15.8654 3.15774 15.4415 3.33333 14.9995 3.33333H3.33322V36.6667H14.9995C15.4415 36.6667 15.8654 36.8423 16.178 37.1548C16.4905 37.4674 16.6661 37.8913 16.6661 38.3333ZM39.5112 18.8208L31.1781 10.4875C30.9451 10.2541 30.648 10.0952 30.3245 10.0308C30.0011 9.96637 29.6658 9.99937 29.3611 10.1256C29.0564 10.2519 28.796 10.4657 28.6129 10.74C28.4298 11.0144 28.3321 11.3368 28.3324 11.6667V18.3333H14.9995C14.5575 18.3333 14.1336 18.5089 13.821 18.8215C13.5085 19.134 13.3329 19.558 13.3329 20C13.3329 20.442 13.5085 20.866 13.821 21.1785C14.1336 21.4911 14.5575 21.6667 14.9995 21.6667H28.3324V28.3333C28.3321 28.6632 28.4298 28.9856 28.6129 29.26C28.796 29.5343 29.0564 29.7481 29.3611 29.8744C29.6658 30.0006 30.0011 30.0336 30.3245 29.9692C30.648 29.9048 30.9451 29.7459 31.1781 29.5125L39.5112 21.1792C39.6662 21.0244 39.7891 20.8406 39.873 20.6382C39.9568 20.4359 40 20.219 40 20C40 19.781 39.9568 19.5641 39.873 19.3618C39.7891 19.1594 39.6662 18.9756 39.5112 18.8208Z" fill="white"/>
</svg>
