<svg width="38" height="38" viewBox="0 0 38 38" fill="none" xmlns="http://www.w3.org/2000/svg">
<g clip-path="url(#clip0_2033_162)">
<path d="M0.500732 1.25C0.500732 0.918479 0.632428 0.600537 0.866849 0.366116C1.10127 0.131696 1.41921 0 1.75073 0H5.50073C5.77956 7.70287e-05 6.05036 0.0933767 6.27006 0.265062C6.48976 0.436747 6.64576 0.67696 6.71323 0.9475L7.72573 5H36.7507C36.9356 5.00011 37.1181 5.04123 37.2852 5.12038C37.4523 5.19953 37.5997 5.31476 37.7168 5.45775C37.834 5.60074 37.918 5.76794 37.9628 5.9473C38.0075 6.12666 38.012 6.31372 37.9757 6.495L35.4757 18.995C35.421 19.2676 35.277 19.5142 35.0665 19.6957C34.856 19.8773 34.5909 19.9835 34.3132 19.9975L10.8207 21.1775L11.5382 25H33.0007C33.3323 25 33.6502 25.1317 33.8846 25.3661C34.119 25.6005 34.2507 25.9185 34.2507 26.25C34.2507 26.5815 34.119 26.8995 33.8846 27.1339C33.6502 27.3683 33.3323 27.5 33.0007 27.5H10.5007C10.2093 27.4997 9.92715 27.3976 9.70301 27.2114C9.47887 27.0252 9.32685 26.7664 9.27323 26.48L5.52573 6.5175L4.52573 2.5H1.75073C1.41921 2.5 1.10127 2.3683 0.866849 2.13388C0.632428 1.89946 0.500732 1.58152 0.500732 1.25ZM8.25573 7.5L10.3557 18.6975L33.2157 17.55L35.2257 7.5H8.25573ZM13.0007 27.5C11.6747 27.5 10.4029 28.0268 9.4652 28.9645C8.52752 29.9021 8.00073 31.1739 8.00073 32.5C8.00073 33.8261 8.52752 35.0979 9.4652 36.0355C10.4029 36.9732 11.6747 37.5 13.0007 37.5C14.3268 37.5 15.5986 36.9732 16.5363 36.0355C17.4739 35.0979 18.0007 33.8261 18.0007 32.5C18.0007 31.1739 17.4739 29.9021 16.5363 28.9645C15.5986 28.0268 14.3268 27.5 13.0007 27.5ZM30.5007 27.5C29.1747 27.5 27.9029 28.0268 26.9652 28.9645C26.0275 29.9021 25.5007 31.1739 25.5007 32.5C25.5007 33.8261 26.0275 35.0979 26.9652 36.0355C27.9029 36.9732 29.1747 37.5 30.5007 37.5C31.8268 37.5 33.0986 36.9732 34.0363 36.0355C34.9739 35.0979 35.5007 33.8261 35.5007 32.5C35.5007 31.1739 34.9739 29.9021 34.0363 28.9645C33.0986 28.0268 31.8268 27.5 30.5007 27.5ZM13.0007 30C13.6638 30 14.2997 30.2634 14.7685 30.7322C15.2373 31.2011 15.5007 31.837 15.5007 32.5C15.5007 33.163 15.2373 33.7989 14.7685 34.2678C14.2997 34.7366 13.6638 35 13.0007 35C12.3377 35 11.7018 34.7366 11.233 34.2678C10.7641 33.7989 10.5007 33.163 10.5007 32.5C10.5007 31.837 10.7641 31.2011 11.233 30.7322C11.7018 30.2634 12.3377 30 13.0007 30ZM30.5007 30C31.1638 30 31.7997 30.2634 32.2685 30.7322C32.7373 31.2011 33.0007 31.837 33.0007 32.5C33.0007 33.163 32.7373 33.7989 32.2685 34.2678C31.7997 34.7366 31.1638 35 30.5007 35C29.8377 35 29.2018 34.7366 28.733 34.2678C28.2641 33.7989 28.0007 33.163 28.0007 32.5C28.0007 31.837 28.2641 31.2011 28.733 30.7322C29.2018 30.2634 29.8377 30 30.5007 30Z" fill="white"/>
</g>
<defs>
<clipPath id="clip0_2033_162">
<rect width="37.4992" height="37.5" fill="white" transform="translate(0.500732)"/>
</clipPath>
</defs>
</svg>
