<svg width="45" height="45" viewBox="0 0 45 45" fill="none" xmlns="http://www.w3.org/2000/svg">
<path d="M40.2063 31.9732C43.3071 27.1477 44.366 22.1723 43.0231 18.3769L42.7052 17.479C43.2614 13.4367 43.1454 8.3693 42.3045 2.25773L42.187 1.40625L41.3074 1.51805C36.2302 2.17055 31.4398 4.25742 27.8166 6.62906C26.1741 6.28875 24.405 6.10805 22.4988 6.10805C20.5941 6.10805 18.8236 6.28875 17.1811 6.62906C13.5593 4.25742 8.77032 2.17055 3.69235 1.51805L2.81274 1.40625L2.69532 2.25703C1.85508 8.37 1.73696 13.4423 2.29243 17.4853L1.97743 18.3769C0.634457 22.1723 1.69407 27.1491 4.79414 31.9746C4.97133 34.2724 5.01282 36.6729 4.14657 38.4799C3.3443 40.1555 6.96539 42.2332 8.69157 42.2332C10.372 42.2332 11.7403 41.4323 12.7317 40.1716C15.9429 42.3457 19.3756 43.5938 22.5002 43.5938C25.6249 43.5938 29.0576 42.3457 32.2695 40.1716C33.2616 41.4323 34.6291 42.2332 36.3103 42.2332C38.0358 42.2332 41.6562 40.1555 40.8553 38.4799C39.9884 36.6708 40.0298 34.2703 40.2063 31.9732ZM40.6584 3.35109C41.2322 7.82578 41.3995 11.7619 41.1788 15.0708C41.1577 14.6018 41.0733 14.1335 40.8856 13.6969L41.1858 13.654L39.9912 11.6761C40.2316 10.3352 40.4116 8.00297 39.6122 5.23055C36.8475 6.33234 34.7107 8.25117 33.912 9.03586C32.7645 8.29406 31.4953 7.695 30.1137 7.23375C33.1083 5.47875 36.773 3.98602 40.6584 3.35109ZM4.34063 3.35109C8.2268 3.98602 11.8915 5.47875 14.8868 7.23445C13.5038 7.6957 12.2353 8.29477 11.0878 9.03656C10.2884 8.25258 8.15227 6.33305 5.38688 5.23125C4.58883 8.00367 4.76883 10.3345 5.0086 11.6768L3.81399 13.6547L4.11352 13.6976C3.92578 14.1349 3.84071 14.6025 3.82032 15.0715C3.60024 11.7619 3.76688 7.82508 4.34063 3.35109ZM22.5002 42.2325C19.4958 42.2325 16.3493 40.9873 13.4735 39.0108C15.6075 34.9059 14.7384 28.0343 9.47133 25.4813C4.84969 23.2397 4.3343 25.3027 4.51993 28.5975C2.90133 25.1958 2.30227 21.6991 3.32321 18.8135L4.14305 19.8942C4.14305 19.8942 3.99118 19.4238 3.94618 18.8459C4.75407 19.279 5.55493 19.6988 5.55493 19.6988C5.55493 19.6988 5.12532 18.4029 5.52047 17.5163L6.13078 17.9817C6.13078 17.9817 4.68446 14.9266 6.02953 13.7552C6.57375 15.5053 7.21782 15.532 7.25438 15.532H7.25649C7.25649 15.532 6.44227 14.182 7.07649 13.6153C7.33594 14.0217 7.57711 14.1602 7.77118 14.1602C8.06368 14.1602 8.25071 13.8495 8.23524 13.6659C8.20078 13.2602 8.36321 12.6879 6.46266 12.4179C6.72493 11.9848 7.31063 11.8561 7.91813 11.8561C8.82446 11.8561 9.7786 12.1444 9.7786 12.1444C9.7786 12.1444 9.71743 11.231 8.46164 11.231L8.38571 11.2324C8.78016 10.665 9.35883 10.4991 9.89813 10.4991C10.6477 10.4991 11.3227 10.8183 11.3227 10.8183L11.3184 10.8302C11.8291 10.4612 12.364 10.127 12.9195 9.82969C13.3596 10.7951 13.9552 11.2345 14.6829 12.5241C15.7235 10.6833 16.485 9.61383 16.9125 8.32289C17.5617 8.16535 18.2183 8.03981 18.8798 7.94672C19.4304 10.3219 20.6946 12.1598 22.4981 15.3478C24.3284 12.1113 25.575 10.3015 26.1171 7.94531C26.8055 8.04094 27.4573 8.17102 28.0859 8.32289C28.5176 9.62789 29.2847 10.7072 30.3127 12.5241C31.0481 11.2212 31.6437 10.7859 32.0803 9.82969C32.6428 10.137 33.1835 10.4639 33.6813 10.8302L33.6771 10.8183C33.6771 10.8183 34.3514 10.4991 35.1016 10.4991C35.6416 10.4991 36.2196 10.665 36.6134 11.2324L36.5374 11.231C35.2823 11.231 35.2212 12.1444 35.2212 12.1444C35.2212 12.1444 36.1753 11.8547 37.0816 11.8561C37.6891 11.8561 38.2748 11.9848 38.5371 12.4179C36.6366 12.6879 36.7983 13.2602 36.7638 13.6659C36.7491 13.8495 36.9361 14.1602 37.2272 14.1602C37.4227 14.1602 37.6645 14.0217 37.924 13.6153C38.5575 14.1813 37.7433 15.532 37.7433 15.532H37.7447C37.782 15.532 38.426 15.5053 38.9695 13.7552C40.3153 14.9266 38.8676 17.9817 38.8676 17.9817L39.4779 17.5163C39.8738 18.4029 39.4434 19.6988 39.4434 19.6988C39.4434 19.6988 40.2492 19.2945 41.0543 18.8824C41.0044 19.4435 40.8581 19.8942 40.8581 19.8942L41.6766 18.8135C42.6968 21.6991 42.0991 25.1958 40.4798 28.5975C40.6648 25.3013 40.1487 23.2404 35.5277 25.4813C30.262 28.0343 29.3923 34.9045 31.5263 39.0108C28.6512 40.9859 25.504 42.2325 22.5002 42.2325Z" fill="white"/>
<path d="M22.5006 24.2606C23.0293 24.2606 23.6867 24.0658 24.3751 23.4464C25.4657 22.4655 25.7828 21.33 25.3721 20.8708C24.797 20.2275 23.0293 20.1782 22.5006 20.1782C21.9732 20.1782 20.2042 20.2275 19.629 20.8708C19.2198 21.3293 19.5362 22.4655 20.6282 23.4464C21.3158 24.0658 21.9732 24.2606 22.5006 24.2606ZM31.3839 25.3659C32.4294 25.5332 33.5361 25.5171 34.5922 25.0593C34.8545 24.9468 35.1132 24.8027 35.3635 24.6171C35.4901 24.5207 35.6096 24.4167 35.732 24.2768C35.765 24.2409 35.791 24.2079 35.8297 24.1544L35.8916 24.0581L35.9324 23.98L36.0322 23.7508C36.2755 23.1496 36.4555 22.5386 36.5954 21.9037C36.8605 20.636 36.9329 19.2656 36.6531 17.9346C36.3606 16.6732 35.7446 15.5097 34.8657 14.5589C34.0318 13.6736 32.8696 13.0774 31.7171 13.2419C31.431 13.2765 31.1502 13.3462 30.8811 13.4493C30.628 13.5464 30.3615 13.6687 30.1182 13.8325C29.6153 14.163 29.1837 14.591 28.8491 15.0911C28.179 16.1268 27.8 17.3756 27.7508 18.6243C28.0096 17.4241 28.4757 16.2843 29.195 15.4708C29.5438 15.0588 29.9481 14.7304 30.3903 14.5125C30.6104 14.3993 30.8361 14.3156 31.0787 14.2453C31.3029 14.1824 31.5337 14.1463 31.7664 14.1377C32.6945 14.1068 33.5783 14.5835 34.2596 15.3703C34.9382 16.1472 35.4999 17.1647 35.7257 18.2313C35.971 19.3148 35.9253 20.5038 35.7116 21.6471C35.6105 22.2158 35.4628 22.7753 35.27 23.3198L35.1976 23.5082L35.1885 23.523L35.154 23.5708C35.0811 23.6572 35.0014 23.7377 34.9157 23.8113C34.732 23.9708 34.5305 24.1086 34.3152 24.2219C33.4398 24.6789 32.4273 24.8329 31.4232 24.7999C30.41 24.7957 29.3961 24.5622 28.3836 24.2957C29.3224 24.8053 30.3345 25.1664 31.3839 25.3659Z" fill="white"/>
<path d="M31.2133 23.3051C31.9977 23.3051 32.6336 21.7821 32.6336 19.9034C32.6336 18.0247 31.9977 16.5017 31.2133 16.5017C30.4289 16.5017 29.793 18.0247 29.793 19.9034C29.793 21.7821 30.4289 23.3051 31.2133 23.3051Z" fill="white"/>
<path d="M10.6873 24.2219C10.4717 24.1091 10.2702 23.9713 10.0869 23.8113C10.0013 23.7376 9.92187 23.6572 9.84921 23.5708L9.81476 23.523C9.81616 23.5244 9.81757 23.5286 9.81616 23.5286L9.80562 23.5082L9.7332 23.3198C9.54335 22.7925 9.39499 22.2201 9.29234 21.6471C9.07859 20.5045 9.03359 19.3148 9.27827 18.2313C9.50468 17.1647 10.0658 16.1472 10.7436 15.3703C11.4249 14.5835 12.3087 14.1068 13.2376 14.1377C13.4647 14.1489 13.7101 14.1813 13.9252 14.2453C14.1671 14.3156 14.3928 14.3993 14.6129 14.5125C15.0544 14.7304 15.4601 15.0588 15.8089 15.4708C16.5275 16.2843 16.9937 17.4241 17.2524 18.6243C17.2039 17.3756 16.8256 16.1268 16.1548 15.0911C15.8198 14.5908 15.3877 14.1628 14.8843 13.8325C14.6457 13.6761 14.39 13.5475 14.1221 13.4493C13.853 13.3462 13.5722 13.2765 13.2861 13.2419C12.1351 13.0774 10.9714 13.6736 10.1382 14.5589C9.26009 15.5103 8.6442 16.6735 8.35085 17.9346C8.0696 19.2656 8.14343 20.6353 8.40851 21.9023C8.54843 22.5386 8.72843 23.1496 8.97101 23.7508L9.07085 23.98L9.11163 24.0581L9.17351 24.1544C9.21218 24.2079 9.2382 24.2409 9.27054 24.2768C9.39288 24.4167 9.51312 24.5214 9.63757 24.6171C9.88859 24.8027 10.148 24.9468 10.4096 25.0593C11.4657 25.5164 12.5717 25.5332 13.6173 25.3659C14.6671 25.1667 15.6796 24.8059 16.6189 24.2964C15.6071 24.5629 14.5939 24.7964 13.5793 24.8006C12.5745 24.8329 11.5613 24.6797 10.6873 24.2219Z" fill="white"/>
<path d="M13.7882 23.3066C14.573 23.3066 15.2092 21.7832 15.2092 19.9041C15.2092 18.025 14.573 16.5017 13.7882 16.5017C13.0034 16.5017 12.3672 18.025 12.3672 19.9041C12.3672 21.7832 13.0034 23.3066 13.7882 23.3066Z" fill="white"/>
<path d="M22.4794 25.9031C19.3695 25.9031 16.8164 29.2528 16.8164 33.3878C16.8164 37.5215 19.3695 40.8726 22.4794 40.8726C25.6294 40.8726 28.1817 37.5215 28.1817 33.3878C28.1817 29.2528 25.6294 25.9031 22.4794 25.9031ZM22.4794 39.9311C21.0436 39.9311 19.8082 39.0332 19.1297 37.7008C19.1297 37.7008 19.8483 36.9949 22.4794 36.9949C25.1119 36.9949 25.8691 37.7008 25.8691 37.7008C25.1913 39.0332 23.9538 39.9311 22.4794 39.9311Z" fill="white"/>
</svg>
